<?xml version="1.0" standalone="no"?>
<!DOCTYPE svg PUBLIC "-//W3C//DTD SVG 20010904//EN"
 "http://www.w3.org/TR/2001/REC-SVG-20010904/DTD/svg10.dtd">
<svg version="1.0" xmlns="http://www.w3.org/2000/svg"
 width="1024.000000pt" height="1024.000000pt" viewBox="0 0 1024.000000 1024.000000"
 preserveAspectRatio="xMidYMid meet">

<g transform="translate(0.000000,1024.000000) scale(0.100000,-0.100000)"
fill="#000000" stroke="none">
<path d="M4894 8509 c-233 -21 -503 -97 -724 -205 -291 -142 -516 -326 -705
-579 -100 -135 -141 -202 -209 -347 -141 -298 -193 -561 -183 -922 6 -231 30
-366 98 -571 109 -327 326 -647 586 -864 297 -250 674 -418 1058 -473 116 -17
485 -16 590 1 133 21 304 61 416 98 l107 34 51 -39 c118 -89 323 -176 488
-208 168 -33 388 -18 485 32 48 25 97 85 113 137 15 51 9 113 -17 161 -6 11
-103 114 -215 228 l-203 207 71 88 c124 154 232 345 304 538 82 221 118 427
118 685 1 338 -65 625 -208 911 -77 154 -236 386 -256 374 -5 -3 -6 0 -4 7 7
16 -152 180 -255 264 -410 334 -949 493 -1506 443z m469 -754 c462 -104 817
-449 939 -912 30 -112 31 -128 32 -313 1 -208 -9 -284 -59 -430 -78 -230 -230
-440 -424 -585 -303 -228 -692 -305 -1064 -211 -551 140 -927 635 -927 1220 0
409 181 776 499 1016 134 101 345 191 526 225 101 18 379 13 478 -10z m114
-3181 c-3 -3 -12 -4 -19 -1 -8 3 -5 6 6 6 11 1 17 -2 13 -5z"/>
<path d="M5793 7143 c-10 -10 -14 -15 -8 -11 6 4 22 12 36 17 15 6 18 10 8 10
-9 1 -25 -7 -36 -16z"/>
<path d="M5881 7156 c2 -2 18 -6 34 -10 22 -5 26 -4 15 4 -14 9 -59 15 -49 6z"/>
<path d="M5510 6873 l-245 -248 248 245 c229 228 252 250 244 250 -1 0 -112
-111 -247 -247z"/>
<path d="M5991 7080 c14 -31 19 -36 19 -24 0 6 -7 19 -16 30 -14 18 -14 18 -3
-6z"/>
<path d="M6012 7000 c0 -14 2 -19 5 -12 2 6 2 18 0 25 -3 6 -5 1 -5 -13z"/>
<path d="M5991 6923 c-10 -26 -10 -27 4 -9 8 11 15 23 15 28 0 15 -7 8 -19
-19z"/>
<path d="M5929 6853 l-34 -38 38 34 c34 33 42 41 34 41 -2 0 -19 -17 -38 -37z"/>
<path d="M5869 6793 c-13 -16 -12 -17 4 -4 9 7 17 15 17 17 0 8 -8 3 -21 -13z"/>
<path d="M4355 6695 c25 -9 107 -12 94 -4 -8 5 -34 8 -59 8 -25 0 -40 -2 -35
-4z"/>
<path d="M5749 6673 c-13 -16 -12 -17 4 -4 9 7 17 15 17 17 0 8 -8 3 -21 -13z"/>
<path d="M4270 6634 c-12 -19 -21 -37 -18 -39 2 -2 14 14 26 36 28 49 22 52
-8 3z"/>
<path d="M4530 6626 c0 -2 8 -10 18 -17 15 -13 16 -12 3 4 -13 16 -21 21 -21
13z"/>
<path d="M5239 6603 c-13 -16 -12 -17 4 -4 9 7 17 15 17 17 0 8 -8 3 -21 -13z"/>
<path d="M5669 6593 c-13 -16 -12 -17 4 -4 9 7 17 15 17 17 0 8 -8 3 -21 -13z"/>
<path d="M4586 6563 c55 -51 70 -58 29 -15 -21 23 -44 42 -49 42 -6 0 3 -12
20 -27z"/>
<path d="M4243 6540 c0 -25 2 -35 4 -22 2 12 2 32 0 45 -2 12 -4 2 -4 -23z"/>
<path d="M5194 6558 l-19 -23 23 19 c21 18 27 26 19 26 -2 0 -12 -10 -23 -22z"/>
<path d="M5149 6513 c-13 -16 -12 -17 4 -4 9 7 17 15 17 17 0 8 -8 3 -21 -13z"/>
<path d="M5569 6493 l-34 -38 38 34 c34 33 42 41 34 41 -2 0 -19 -17 -38 -37z"/>
<path d="M4651 6498 c2 -2 20 -16 39 -33 l35 -30 -29 33 c-17 17 -34 32 -40
32 -5 0 -7 -1 -5 -2z"/>
<path d="M4250 6477 c0 -10 48 -67 108 -126 59 -59 107 -106 107 -105 0 2 -41
45 -92 97 -51 51 -99 107 -108 123 -11 21 -15 24 -15 11z"/>
<path d="M5080 6445 c-7 -9 -10 -18 -7 -21 3 -3 10 4 17 15 13 25 8 27 -10 6z"/>
<path d="M4769 6383 c88 -86 107 -99 36 -25 -38 39 -73 72 -78 72 -4 0 15 -21
42 -47z"/>
<path d="M5479 6403 c-13 -16 -12 -17 4 -4 16 13 21 21 13 21 -2 0 -10 -8 -17
-17z"/>
<path d="M5019 6383 c-13 -16 -12 -17 4 -4 9 7 17 15 17 17 0 8 -8 3 -21 -13z"/>
<path d="M5429 6353 c-13 -16 -12 -17 4 -4 16 13 21 21 13 21 -2 0 -10 -8 -17
-17z"/>
<path d="M5386 6303 c-6 -14 -5 -15 5 -6 7 7 10 15 7 18 -3 3 -9 -2 -12 -12z"/>
<path d="M4490 6220 c6 -11 13 -20 16 -20 2 0 0 9 -6 20 -6 11 -13 20 -16 20
-2 0 0 -9 6 -20z"/>
<path d="M5298 6218 c-10 -10 -14 -18 -9 -18 10 0 36 29 30 34 -2 1 -12 -6
-21 -16z"/>
<path d="M4520 6186 c0 -2 8 -10 18 -17 15 -13 16 -12 3 4 -13 16 -21 21 -21
13z"/>
<path d="M4570 6141 c0 -9 49 -56 53 -50 1 2 -10 16 -25 31 -15 15 -28 23 -28
19z"/>
<path d="M4680 6035 c19 -19 36 -35 39 -35 3 0 -10 16 -29 35 -19 19 -36 35
-39 35 -3 0 10 -16 29 -35z"/>
<path d="M5045 5969 c-22 -23 -53 -50 -70 -60 -16 -10 -25 -19 -18 -19 15 0
133 98 133 110 0 15 -3 13 -45 -31z"/>
<path d="M4770 5945 c19 -19 36 -35 39 -35 3 0 -10 16 -29 35 -19 19 -36 35
-39 35 -3 0 10 -16 29 -35z"/>
<path d="M4827 5899 c7 -7 15 -10 18 -7 3 3 -2 9 -12 12 -14 6 -15 5 -6 -5z"/>
<path d="M4888 5883 c12 -2 30 -2 40 0 9 3 -1 5 -23 4 -22 0 -30 -2 -17 -4z"/>
<path d="M4575 3675 c-111 -39 -137 -179 -49 -262 101 -94 264 -20 264 120 0
57 -32 105 -90 135 -51 25 -70 27 -125 7z"/>
<path d="M2352 3610 c-179 -47 -334 -172 -410 -330 -58 -123 -76 -215 -69
-364 10 -212 62 -341 192 -472 122 -123 250 -179 442 -191 99 -6 177 5 277 39
l60 21 35 -39 c20 -22 54 -60 76 -86 l40 -48 88 71 88 70 -48 60 c-26 33 -58
72 -70 87 l-22 28 35 44 c114 143 163 325 143 524 -30 294 -214 517 -485 586
-103 27 -270 26 -372 0z m309 -250 c113 -35 207 -124 249 -236 27 -74 36 -195
21 -276 -12 -62 -58 -179 -70 -177 -3 0 -46 49 -96 109 -49 60 -93 109 -97
109 -3 1 -47 -31 -97 -69 l-91 -70 95 -113 c111 -131 111 -130 -45 -131 -83
-1 -102 2 -152 26 -111 52 -190 150 -223 273 -22 84 -20 218 5 297 66 213 284
326 501 258z"/>
<path d="M6020 3385 l0 -115 -80 0 -80 0 0 -110 0 -110 79 0 80 0 3 -292 c3
-327 6 -339 76 -411 54 -55 122 -77 240 -77 53 0 114 5 135 11 l37 10 0 102 0
102 -84 0 c-140 0 -146 14 -146 333 l0 222 120 0 120 0 0 110 0 110 -120 0
-120 0 0 115 0 115 -130 0 -130 0 0 -115z"/>
<path d="M7010 3279 c-124 -20 -264 -119 -324 -229 -83 -152 -86 -382 -8 -536
63 -123 157 -198 296 -234 206 -52 407 -2 535 135 33 36 61 71 61 78 0 7 -43
32 -95 55 l-95 44 -51 -46 c-157 -142 -405 -73 -442 122 l-6 32 354 0 355 0 0
99 c0 208 -86 364 -243 440 -95 46 -211 60 -337 40z m183 -208 c63 -24 136
-119 137 -178 l0 -23 -225 0 -225 0 6 28 c17 69 70 137 129 163 43 20 138 25
178 10z"/>
<path d="M8200 3276 c-61 -16 -112 -49 -155 -99 l-35 -41 0 70 0 69 -125 -3
-125 -3 0 -495 0 -494 130 0 130 0 0 288 c0 320 3 334 71 400 41 40 138 72
220 72 l59 0 0 119 c0 99 -3 120 -16 125 -25 10 -105 6 -154 -8z"/>
<path d="M3372 2913 c4 -299 7 -366 21 -408 35 -106 126 -198 224 -226 27 -8
89 -14 138 -14 114 0 177 21 245 82 l50 45 0 -56 0 -56 125 0 125 0 0 495 0
495 -132 0 -133 0 0 -313 c0 -307 0 -313 -24 -360 -12 -26 -37 -58 -55 -72
-78 -59 -203 -55 -265 9 -56 58 -61 95 -61 433 l0 303 -131 0 -131 0 4 -357z"/>
<path d="M4500 2775 l0 -495 130 0 130 0 2 495 3 495 -132 0 -133 0 0 -495z"/>
<path d="M4940 3160 l0 -110 235 0 c129 0 235 -2 235 -5 0 -3 -105 -131 -234
-284 l-235 -280 -3 -100 -3 -101 418 0 417 0 0 110 0 110 -251 2 -250 3 87
105 c48 58 157 187 241 288 l153 183 0 95 0 94 -405 0 -405 0 0 -110z"/>
</g>
</svg>
