<?xml version="1.0" ?>
<svg xmlns="http://www.w3.org/2000/svg" viewBox="0 0 1024 1024" width="1024" height="1024">
  <g fill="#387EF0" fill-rule="evenodd">
    <path d="M 372,222 L 357,237 L 344,253 L 334,268 L 324,287 L 311,325 L 306,362 L 308,401 L 312,421 L 319,443 L 335,475 L 355,502 L 379,525 L 402,541 L 435,557 L 465,566 L 492,570 L 529,570 L 556,566 L 592,555 L 615,570 L 636,578 L 650,581 L 675,582 L 687,580 L 698,575 L 705,567 L 707,561 L 706,551 L 703,545 L 673,515 L 663,503 L 680,481 L 689,466 L 698,447 L 705,427 L 712,385 L 711,348 L 705,317 L 695,289 L 684,268 L 661,237 L 646,222 L 631,210 L 614,199 L 592,188 L 554,176 L 527,172 L 483,173 L 449,180 L 429,187 L 406,198 L 390,208 Z M 499,245 L 519,245 L 543,249 L 568,259 L 591,275 L 607,292 L 620,312 L 629,334 L 634,361 L 634,382 L 629,409 L 618,435 L 607,451 L 587,471 L 567,484 L 544,493 L 524,497 L 496,497 L 475,493 L 463,489 L 447,481 L 431,470 L 413,452 L 402,436 L 394,420 L 389,405 L 385,383 L 385,360 L 391,330 L 402,306 L 414,289 L 429,274 L 451,259 L 473,250 Z"/>
  </g>
  <g fill="#27B963" fill-rule="evenodd">
    <path d="M 601,319 L 599,319 L 599,314 L 597,314 L 595,310 L 592,310 L 592,308 L 587,309 L 586,308 L 588,307 L 583,307 L 583,309 L 578,309 L 578,311 L 518,371 L 517,370 L 516,373 L 507,382 L 506,381 L 507,382 L 499,390 L 498,389 L 499,390 L 497,392 L 496,391 L 494,395 L 488,398 L 486,396 L 487,395 L 485,395 L 455,365 L 456,364 L 448,358 L 448,356 L 444,356 L 444,354 L 434,354 L 434,356 L 430,356 L 431,357 L 428,360 L 426,360 L 427,362 L 425,362 L 425,365 L 424,364 L 424,375 L 426,375 L 426,379 L 427,378 L 479,432 L 480,431 L 482,434 L 485,433 L 485,435 L 494,435 L 495,433 L 497,434 L 497,432 L 500,432 L 500,430 L 511,419 L 512,420 L 511,419 L 515,415 L 516,416 L 515,415 L 519,411 L 520,412 L 519,411 L 523,407 L 524,408 L 527,405 L 526,404 L 533,397 L 535,397 L 534,396 L 539,391 L 540,392 L 543,389 L 542,388 L 549,381 L 550,382 L 556,376 L 555,375 L 557,373 L 558,374 L 557,373 L 559,371 L 560,372 L 560,370 L 562,368 L 563,369 L 562,368 L 564,366 L 565,367 L 577,355 L 576,354 L 578,352 L 579,353 L 578,352 L 585,347 L 584,346 L 586,344 L 587,345 L 590,342 L 589,341 L 591,339 L 593,339 L 592,338 L 594,336 L 595,337 L 599,333 L 598,331 L 600,331 L 599,328 L 601,328 Z"/>
  </g>
  <g fill="#272F43" fill-rule="evenodd">
    <path d="M 217,670 L 200,685 L 192,699 L 188,712 L 187,739 L 191,756 L 197,768 L 212,785 L 224,792 L 240,797 L 262,798 L 284,791 L 299,809 L 316,795 L 302,778 L 315,759 L 320,741 L 320,717 L 312,693 L 305,683 L 293,672 L 270,662 L 242,661 Z M 246,685 L 260,685 L 278,693 L 288,704 L 294,722 L 293,741 L 286,757 L 267,735 L 248,749 L 267,771 L 259,774 L 246,774 L 231,768 L 219,755 L 213,738 L 213,719 L 218,705 L 231,691 Z"/>
    <path d="M 695,697 L 681,704 L 671,714 L 666,723 L 662,739 L 662,754 L 665,767 L 673,781 L 682,789 L 692,794 L 704,797 L 720,797 L 735,793 L 744,788 L 754,778 L 756,773 L 737,765 L 725,775 L 718,777 L 704,776 L 691,766 L 687,754 L 758,753 L 758,733 L 754,720 L 740,703 L 731,698 L 717,695 Z M 687,735 L 692,724 L 698,718 L 705,715 L 722,717 L 730,725 L 733,732 L 732,737 L 688,737 Z"/>
    <path d="M 337,697 L 337,762 L 339,773 L 347,787 L 360,795 L 380,797 L 394,793 L 404,784 L 405,795 L 429,795 L 429,697 L 403,697 L 403,760 L 395,772 L 385,776 L 372,774 L 365,767 L 362,759 L 362,697 Z"/>
    <path d="M 494,697 L 494,718 L 540,718 L 541,720 L 495,774 L 493,795 L 576,795 L 576,774 L 526,773 L 573,717 L 574,697 Z"/>
    <path d="M 602,674 L 602,696 L 586,697 L 586,718 L 602,719 L 602,773 L 604,781 L 613,792 L 623,796 L 650,794 L 650,774 L 636,775 L 628,768 L 627,719 L 651,718 L 651,697 L 628,697 L 627,674 Z"/>
    <path d="M 836,696 L 824,695 L 816,697 L 809,701 L 801,710 L 800,696 L 776,697 L 776,795 L 801,795 L 802,735 L 807,727 L 814,722 L 824,719 L 836,719 Z"/>
    <path d="M 450,697 L 450,795 L 475,795 L 476,697 Z"/>
    <path d="M 461,655 L 450,661 L 447,673 L 453,683 L 459,686 L 466,686 L 476,679 L 478,667 L 472,658 Z"/>
  </g>
</svg>
