<svg width="100" height="100" viewBox="0 0 100 100" xmlns="http://www.w3.org/2000/svg">
  <defs>
    <radialGradient id="bgGradientB" cx="32%" cy="28%" r="72%">
      <stop offset="0%" stop-color="#1e3a8a" />
      <stop offset="45%" stop-color="#1d4ed8" />
      <stop offset="100%" stop-color="#0f172a" />
    </radialGradient>
    <linearGradient id="needleRedB" x1="50%" y1="0%" x2="50%" y2="100%">
      <stop offset="0%" stop-color="#fca5a5" />
      <stop offset="100%" stop-color="#dc2626" />
    </linearGradient>
    <linearGradient id="needleCyanB" x1="50%" y1="0%" x2="50%" y2="100%">
      <stop offset="0%" stop-color="#a5f3fc" />
      <stop offset="100%" stop-color="#0891b2" />
    </linearGradient>
    <linearGradient id="needleBlueB" x1="0%" y1="50%" x2="100%" y2="50%">
      <stop offset="0%" stop-color="#93c5fd" />
      <stop offset="100%" stop-color="#2563eb" />
    </linearGradient>
  </defs>

  <circle cx="50" cy="50" r="44" fill="url(#bgGradientB)" stroke="#1e293b" stroke-width="2" />
  <circle cx="50" cy="50" r="39" fill="none" stroke="#0ea5e9" stroke-width="1.5" opacity="0.85" />
  <circle cx="50" cy="50" r="35" fill="none" stroke="#f87171" stroke-width="1" opacity="0.45" />

  <path d="M50 2 L58 45 L50 42 L42 45 Z" fill="url(#needleRedB)" stroke="#f87171" stroke-width="1.2" />
  <path d="M50 98 L42 55 L50 58 L58 55 Z" fill="url(#needleCyanB)" stroke="#0ea5e9" stroke-width="1.2" />
  <path d="M98 50 L55 42 L58 50 L55 58 Z" fill="url(#needleBlueB)" stroke="#60a5fa" stroke-width="1" opacity="0.9" />
  <path d="M2 50 L45 58 L42 50 L45 42 Z" fill="url(#needleBlueB)" stroke="#60a5fa" stroke-width="1" opacity="0.9" />

  <circle cx="50" cy="50" r="16" fill="#ffffff" stroke="#0ea5e9" stroke-width="3" />
  <circle cx="50" cy="50" r="14" fill="#e0f2fe" />
  <text x="50" y="61" font-family="Arial, sans-serif" font-size="27" font-weight="700" fill="#0369a1" text-anchor="middle">?</text>
</svg>
